<svg width="36" height="35" viewBox="0 0 36 35" fill="none" xmlns="http://www.w3.org/2000/svg">
<g id="Group 17107">
<path id="Union" d="M26.9805 8.97964C25.0163 4.8441 20.1484 1.91663 14.4542 1.91663C7.02365 1.91663 1 6.90171 1 13.0511C1 17.0927 3.60193 20.6314 7.49513 22.5824V28.3611L12.7438 24.0965C13.3039 24.1553 13.8748 24.1856 14.4542 24.1856C15.2452 24.1856 16.0203 24.1291 16.7739 24.0208C17.4088 23.9294 18.0285 23.8013 18.6296 23.639C22.9193 22.4812 26.2613 19.5876 27.4444 15.9605" stroke="#282439" stroke-width="2" stroke-linecap="round" stroke-linejoin="round"/>
<path id="Union_2" d="M15.167 20.6167C15.167 16.0266 19.6068 12.3055 25.0837 12.3055C30.5605 12.3055 35.0003 16.0266 35.0003 20.6167C35.0003 23.7011 32.9954 26.3932 30.0183 27.8274V33.0833L25.0251 28.9276C22.4814 28.9153 20.1647 28.1003 18.4172 26.7696" stroke="#282439" stroke-width="2" stroke-linecap="round" stroke-linejoin="round"/>
</g>
</svg>
