<svg width="32" height="32" viewBox="0 0 32 32" fill="none" xmlns="http://www.w3.org/2000/svg">
<path fill-rule="evenodd" clip-rule="evenodd" d="M16.0712 2.00012C8.29975 2.00012 1.99976 8.30012 1.99976 16.0716C1.99976 19.8979 3.52697 23.3675 6.00509 25.9041C7.25109 22.6751 10.006 20.1963 13.4055 19.3321C11.6333 18.3805 10.4283 16.5096 10.4283 14.3573C10.4283 11.2408 12.9547 8.71441 16.0712 8.71441C19.1876 8.71441 21.714 11.2408 21.714 14.3573C21.714 16.5096 20.509 18.3805 18.7369 19.3321C22.1363 20.1963 24.8913 22.6751 26.1373 25.9041C28.6154 23.3675 30.1426 19.8979 30.1426 16.0716C30.1426 8.30012 23.8426 2.00012 16.0712 2.00012ZM25.3452 26.6547C24.0395 22.7858 20.3806 20.0001 16.0712 20.0001C11.7617 20.0001 8.1029 22.7858 6.79714 26.6547C9.27349 28.8265 12.5186 30.143 16.0712 30.143C19.6238 30.143 22.8689 28.8265 25.3452 26.6547ZM16.0712 19.0001C18.6354 19.0001 20.714 16.9214 20.714 14.3573C20.714 11.7931 18.6354 9.71441 16.0712 9.71441C13.507 9.71441 11.4283 11.7931 11.4283 14.3573C11.4283 16.9214 13.507 19.0001 16.0712 19.0001ZM0.999756 16.0716C0.999756 7.74783 7.74746 1.00012 16.0712 1.00012C24.3949 1.00012 31.1426 7.74783 31.1426 16.0716C31.1426 24.3953 24.3949 31.143 16.0712 31.143C7.74746 31.143 0.999756 24.3953 0.999756 16.0716Z" fill="#282439"/>
<path d="M6.00509 25.9041L5.64743 26.2535L6.19135 26.8103L6.47156 26.0841L6.00509 25.9041ZM13.4055 19.3321L13.5287 19.8166L14.7749 19.4998L13.6421 18.8915L13.4055 19.3321ZM18.7369 19.3321L18.5003 18.8915L17.3675 19.4998L18.6137 19.8166L18.7369 19.3321ZM26.1373 25.9041L25.6708 26.0841L25.951 26.8103L26.4949 26.2535L26.1373 25.9041ZM25.3452 26.6547L25.6749 27.0306L25.9256 26.8107L25.819 26.4948L25.3452 26.6547ZM6.79714 26.6547L6.32339 26.4948L6.21676 26.8107L6.46746 27.0306L6.79714 26.6547ZM2.49976 16.0716C2.49976 8.57626 8.57589 2.50012 16.0712 2.50012V1.50012C8.02361 1.50012 1.49976 8.02397 1.49976 16.0716H2.49976ZM6.36274 25.5547C3.97218 23.1077 2.49976 19.7621 2.49976 16.0716H1.49976C1.49976 20.0337 3.08175 23.6273 5.64743 26.2535L6.36274 25.5547ZM6.47156 26.0841C7.65985 23.0047 10.2879 20.6405 13.5287 19.8166L13.2823 18.8475C9.72422 19.752 6.84234 22.3455 5.53861 25.7241L6.47156 26.0841ZM9.92833 14.3573C9.92833 16.701 11.241 18.7373 13.169 19.7726L13.6421 18.8915C12.0256 18.0236 10.9283 16.3182 10.9283 14.3573H9.92833ZM16.0712 8.21441C12.6786 8.21441 9.92833 10.9647 9.92833 14.3573H10.9283C10.9283 11.5169 13.2309 9.21441 16.0712 9.21441V8.21441ZM22.214 14.3573C22.214 10.9647 19.4638 8.21441 16.0712 8.21441V9.21441C18.9115 9.21441 21.214 11.5169 21.214 14.3573H22.214ZM18.9734 19.7726C20.9013 18.7373 22.214 16.701 22.214 14.3573H21.214C21.214 16.3182 20.1167 18.0236 18.5003 18.8915L18.9734 19.7726ZM18.6137 19.8166C21.8545 20.6405 24.4825 23.0047 25.6708 26.0841L26.6038 25.7241C25.3 22.3455 22.4181 19.752 18.86 18.8475L18.6137 19.8166ZM29.6426 16.0716C29.6426 19.7621 28.1702 23.1077 25.7796 25.5547L26.4949 26.2535C29.0606 23.6273 30.6426 20.0337 30.6426 16.0716H29.6426ZM16.0712 2.50012C23.5665 2.50012 29.6426 8.57626 29.6426 16.0716H30.6426C30.6426 8.02397 24.1188 1.50012 16.0712 1.50012V2.50012ZM25.819 26.4948C24.4467 22.4288 20.6016 19.5001 16.0712 19.5001V20.5001C20.1597 20.5001 23.6322 23.1428 24.8715 26.8146L25.819 26.4948ZM16.0712 19.5001C11.5408 19.5001 7.69567 22.4288 6.32339 26.4948L7.27088 26.8146C8.51013 23.1428 11.9827 20.5001 16.0712 20.5001V19.5001ZM16.0712 29.643C12.6445 29.643 9.51546 28.3736 7.12682 26.2788L6.46746 27.0306C9.03151 29.2793 12.3927 30.643 16.0712 30.643V29.643ZM25.0156 26.2788C22.6269 28.3736 19.4979 29.643 16.0712 29.643V30.643C19.7497 30.643 23.1109 29.2793 25.6749 27.0306L25.0156 26.2788ZM20.214 14.3573C20.214 16.6453 18.3592 18.5001 16.0712 18.5001V19.5001C18.9115 19.5001 21.214 17.1976 21.214 14.3573H20.214ZM16.0712 10.2144C18.3592 10.2144 20.214 12.0692 20.214 14.3573H21.214C21.214 11.5169 18.9115 9.21441 16.0712 9.21441V10.2144ZM11.9283 14.3573C11.9283 12.0692 13.7831 10.2144 16.0712 10.2144V9.21441C13.2309 9.21441 10.9283 11.5169 10.9283 14.3573H11.9283ZM16.0712 18.5001C13.7831 18.5001 11.9283 16.6453 11.9283 14.3573H10.9283C10.9283 17.1976 13.2309 19.5001 16.0712 19.5001V18.5001ZM16.0712 0.500122C7.47132 0.500122 0.499756 7.47169 0.499756 16.0716H1.49976C1.49976 8.02397 8.02361 1.50012 16.0712 1.50012V0.500122ZM31.6426 16.0716C31.6426 7.47169 24.671 0.500122 16.0712 0.500122V1.50012C24.1188 1.50012 30.6426 8.02397 30.6426 16.0716H31.6426ZM16.0712 31.643C24.671 31.643 31.6426 24.6714 31.6426 16.0716H30.6426C30.6426 24.1191 24.1188 30.643 16.0712 30.643V31.643ZM0.499756 16.0716C0.499756 24.6714 7.47132 31.643 16.0712 31.643V30.643C8.02361 30.643 1.49976 24.1191 1.49976 16.0716H0.499756Z" fill="black"/>
</svg>
