<svg width="20" height="21" viewBox="0 0 20 21" fill="none" xmlns="http://www.w3.org/2000/svg">
<g id="proicons:chat">
<path id="Vector" d="M6.64171 8.73769H13.3584M6.64171 12.261H11.4317M10 18.2077C11.6745 18.2073 13.3034 17.6617 14.6402 16.6534C15.977 15.645 16.9492 14.2288 17.4096 12.6188C17.87 11.0089 17.7937 9.2928 17.1921 7.7301C16.5905 6.1674 15.4965 4.84309 14.0754 3.95744C12.6543 3.0718 10.9834 2.67299 9.3155 2.82133C7.6476 2.96967 6.07335 3.6571 4.83086 4.77965C3.58836 5.90219 2.74518 7.3988 2.42885 9.04314C2.11251 10.6875 2.34022 12.3901 3.07754 13.8935C3.16754 14.0769 3.19754 14.2835 3.15171 14.4819L2.47171 17.4285C2.45254 17.5112 2.45473 17.5974 2.4781 17.679C2.50146 17.7607 2.54521 17.835 2.60524 17.895C2.66526 17.955 2.73958 17.9988 2.82119 18.0221C2.9028 18.0455 2.98901 18.0477 3.07171 18.0285L6.01754 17.3477C6.21643 17.3041 6.42427 17.3306 6.60587 17.4227C7.66203 17.9413 8.8234 18.2099 10 18.2077Z" stroke="#7D5FA3" stroke-width="1.2" stroke-linecap="round" stroke-linejoin="round"/>
</g>
</svg>
