<svg width="20" height="21" viewBox="0 0 20 21" fill="none" xmlns="http://www.w3.org/2000/svg">
<g id="iconamoon:discover-light">
<g id="Group">
<path id="Vector" d="M9.99984 18.8327C14.6022 18.8327 18.3332 15.1017 18.3332 10.4993C18.3332 5.89698 14.6022 2.16602 9.99984 2.16602C5.39746 2.16602 1.6665 5.89698 1.6665 10.4993C1.6665 15.1017 5.39746 18.8327 9.99984 18.8327Z" stroke="#7D5FA3" stroke-width="1.2" stroke-linecap="round" stroke-linejoin="round"/>
<path id="Vector_2" d="M9.36023 8.40887L12.7797 7.72461L12.0954 11.1441C12.0238 11.5025 11.8477 11.8316 11.5894 12.0902C11.331 12.3487 11.0019 12.525 10.6436 12.5968L7.22412 13.2802L7.90838 9.86072C7.98017 9.50249 8.15633 9.1735 8.41467 8.91516C8.67301 8.65681 9.002 8.48066 9.36023 8.40887Z" stroke="#7D5FA3" stroke-width="1.2" stroke-linecap="round" stroke-linejoin="round"/>
</g>
</g>
</svg>
