<svg width="24" height="24" viewBox="0 0 24 24" fill="none" xmlns="http://www.w3.org/2000/svg">
<path fill-rule="evenodd" clip-rule="evenodd" d="M9.10267 8.87752V3.93244C9.10267 2.46543 7.90506 1.27618 6.42773 1.27618C4.9504 1.27618 3.75279 2.46543 3.75279 3.93244V13.023C3.32615 13.3055 2.94931 13.6673 2.64566 14.0963C1.91366 15.1305 1.68904 16.44 2.03459 17.6588L2.31473 18.6468C3.33045 22.2292 7.20241 24.1696 10.6829 22.8404L14.2847 21.4649C14.5312 21.3707 14.763 21.2515 14.9777 21.1109H18.9047C20.3855 21.1109 21.5858 19.9393 21.5858 18.494C21.5858 17.0487 20.3855 15.8771 18.9047 15.8771H16.0252L16.4471 15.457C17.3344 14.5735 17.3344 13.1409 16.4471 12.2573L15.8785 11.6912C15.3523 11.1671 14.632 10.9539 13.9479 11.0515C14.0931 10.3337 13.8863 9.55925 13.3273 9.00268L12.7588 8.43657C11.8715 7.55298 10.4328 7.55298 9.5455 8.43657L9.10267 8.87752ZM8.21102 9.7654V3.93244C8.21102 2.95443 7.41261 2.1616 6.42773 2.1616C5.44284 2.1616 4.64443 2.95444 4.64443 3.93244V13.0457L4.64435 13.3377L6.81153 12.5526C6.73127 11.7823 6.98757 10.9837 7.58042 10.3933L8.21102 9.7654ZM2.89237 17.4159C2.63902 16.5223 2.77492 15.5668 3.26015 14.782L4.30775 14.4025L9.07713 12.5851C10.3508 12.0997 11.7719 12.7945 12.1709 14.0977C12.4774 15.0987 11.9419 16.1617 10.9549 16.5114L10.0671 16.826L7.71899 17.6588L8.01616 18.494L10.7986 17.5071C11.8483 18.4527 13.4699 18.4216 14.482 17.4138L15.2863 16.6129L15.2875 16.6148L15.298 16.6033L15.4993 16.705C15.5569 16.7341 15.6207 16.7493 15.6854 16.7493L18.9047 16.7494C19.8919 16.7494 20.6921 17.5305 20.6921 18.494C20.6921 19.4575 19.8919 20.2386 18.9047 20.2386H15.2193L15.2186 20.2392H14.666C14.4571 20.4015 14.2223 20.5349 13.9664 20.6326L10.3647 22.0082C7.37329 23.1506 4.04549 21.4829 3.17251 18.404L2.89237 17.4159ZM12.7907 13.3812C13.3867 14.7414 12.8934 16.2882 11.7189 17.0797C12.398 17.4594 13.2738 17.3616 13.8517 16.7862L15.8168 14.8294C16.356 14.2924 16.356 13.4219 15.8168 12.8849L15.2482 12.3188C14.709 11.7819 13.8348 11.7819 13.2955 12.3188L12.5984 13.013C12.6699 13.1297 12.7343 13.2525 12.7907 13.3812ZM9.00243 11.759C10.0497 11.3796 11.1777 11.6152 11.9779 12.2909L12.697 11.5748C13.2363 11.0378 13.2363 10.1673 12.697 9.63032L12.1285 9.06421C11.5893 8.52726 10.715 8.52726 10.1758 9.06421L8.21073 11.021C7.87323 11.3571 7.69933 11.7944 7.68905 12.2347L9.00243 11.759Z" fill="#7D5FA3"/>
<path fill-rule="evenodd" clip-rule="evenodd" d="M6.42785 1.35163C4.99189 1.35163 3.82872 2.50744 3.82872 3.93208V13.0634L3.79476 13.0859C3.37584 13.3633 3.00582 13.7185 2.70766 14.1397C1.98891 15.1552 1.76835 16.441 2.10765 17.6377L2.38779 18.6258C3.39136 22.1653 7.21703 24.0825 10.656 22.7692L14.2578 21.3937C14.4992 21.3015 14.7261 21.1848 14.9362 21.0471L14.9552 21.0347H18.9049C20.3454 21.0347 21.5101 19.8953 21.5101 18.4936C21.5101 17.0919 20.3454 15.9525 18.9049 15.9525H15.8418L16.3937 15.403C17.2513 14.549 17.2513 13.1646 16.3937 12.3106L15.8252 11.7445C15.3165 11.238 14.6204 11.0318 13.9588 11.1261L13.8525 11.1413L13.8737 11.0361C14.0141 10.3422 13.8142 9.59393 13.274 9.05603L12.7055 8.48992C11.8477 7.63579 10.4569 7.63579 9.59911 8.48992L9.02699 9.05963V3.93208C9.02699 2.50743 7.86382 1.35163 6.42785 1.35163ZM3.6771 3.93208C3.6771 2.4227 4.90916 1.20001 6.42785 1.20001C7.94655 1.20001 9.1786 2.4227 9.1786 3.93208V8.69469L9.49213 8.38249C10.409 7.46945 11.8955 7.46945 12.8124 8.38249L13.381 8.9486C13.9321 9.49744 14.152 10.2513 14.0407 10.9636C14.7159 10.8974 15.4147 11.1218 15.9322 11.6371L16.5007 12.2032C17.4178 13.1164 17.4178 14.5972 16.5007 15.5104L16.2089 15.8009H18.9049C20.4257 15.8009 21.6617 17.0047 21.6617 18.4936C21.6617 19.9825 20.4257 21.1863 18.9049 21.1863H15.0003C14.7865 21.3245 14.5563 21.442 14.3119 21.5353L10.7101 22.9108C7.18804 24.2559 3.2698 22.2924 2.24192 18.6671L1.96178 17.6791C1.60997 16.4383 1.83867 15.105 2.58391 14.0522C2.88496 13.6268 3.2567 13.2664 3.6771 12.9822V3.93208ZM6.42785 2.23705C5.48433 2.23705 4.72037 2.99644 4.72037 3.93208L4.72031 13.2293L6.73074 12.501C6.66705 11.7272 6.93249 10.9313 7.52705 10.3393L8.13534 9.73354V3.93208C8.13534 2.99644 7.37137 2.23705 6.42785 2.23705ZM4.56875 3.93208C4.56875 2.9117 5.4016 2.08543 6.42785 2.08543C7.4541 2.08543 8.28695 2.9117 8.28695 3.93208V9.79653L7.63403 10.4467C7.05806 11.0202 6.80907 11.7959 6.88705 12.5444L6.89319 12.6034L4.56863 13.4455L4.56875 3.93208ZM12.0752 9.11757C11.5655 8.61007 10.7391 8.61007 10.2294 9.11757L8.26434 11.0743C7.96989 11.3675 7.80559 11.741 7.77128 12.124L8.97673 11.6873C10.0272 11.3068 11.1567 11.5299 11.9732 12.1883L12.6437 11.5207C13.1531 11.0134 13.1531 10.191 12.6437 9.68367L12.0752 9.11757ZM10.1224 9.01013C10.6912 8.44373 11.6133 8.44373 12.1821 9.01013L12.7506 9.57624C13.3196 10.1428 13.3196 11.0616 12.7506 11.6281L11.9822 12.3933L11.9291 12.3485C11.1489 11.6896 10.0493 11.46 9.02837 11.8299L7.6108 12.3434L7.61338 12.2326C7.62411 11.7734 7.80549 11.3173 8.15736 10.9669L10.1224 9.01013ZM15.1949 12.3722C14.6852 11.8647 13.8588 11.8647 13.3491 12.3722L12.694 13.0245C12.7551 13.1286 12.8107 13.2373 12.8602 13.3504C13.4535 14.7043 12.994 16.2382 11.8651 17.0691C12.498 17.3651 13.2756 17.2526 13.7983 16.7321L15.7634 14.7753C16.2729 14.268 16.2729 13.4456 15.7634 12.9383L15.1949 12.3722ZM13.2422 12.2647C13.811 11.6983 14.733 11.6983 15.3019 12.2647L15.8704 12.8308C16.4393 13.3974 16.4393 14.3162 15.8704 14.8827L13.9053 16.8395C13.3028 17.4395 12.3899 17.5413 11.682 17.1455L11.5744 17.0853L11.6766 17.0165C12.8216 16.2448 13.3023 14.737 12.7214 13.4112C12.6664 13.2857 12.6036 13.166 12.5339 13.0523L12.5026 13.0012L13.2422 12.2647ZM12.0986 14.1195C11.7124 12.8583 10.3369 12.1858 9.10424 12.6555L4.3337 14.4734L3.31105 14.8439C2.84813 15.6064 2.7203 16.5303 2.96543 17.3949L3.24557 18.3829C4.10639 21.419 7.38791 23.0635 10.3377 21.937L13.9395 20.5615C14.1883 20.4664 14.4166 20.3367 14.6197 20.179L14.6402 20.163H15.1875L15.1881 20.1624H18.9049C19.8519 20.1624 20.6164 19.4135 20.6164 18.4936C20.6164 17.5737 19.8519 16.8248 18.9049 16.8248L15.6855 16.8248C15.6089 16.8248 15.5335 16.8068 15.4652 16.7723L15.3152 16.6965L15.2771 16.7382L15.2734 16.7325L14.5356 17.4672C13.5056 18.4928 11.8621 18.5347 10.7819 17.5931L7.97025 18.5904L7.62225 17.6124L10.0419 16.7541L10.9297 16.4396C11.8784 16.1034 12.3932 15.0817 12.0986 14.1195ZM15.3242 16.5312L15.5336 16.637C15.5806 16.6608 15.6327 16.6731 15.6855 16.6731L18.9049 16.6732C19.9321 16.6732 20.768 17.4865 20.768 18.4936C20.768 19.5007 19.9321 20.314 18.9049 20.314H15.2506L15.25 20.3146H14.6919C14.4824 20.4742 14.2481 20.6059 13.9936 20.7031L10.3918 22.0786C7.35892 23.2369 3.98483 21.5461 3.0997 18.4243L2.81956 17.4362C2.56038 16.5221 2.69941 15.5446 3.19579 14.7418L3.20966 14.7194L4.28088 14.3313L4.28205 14.3309L9.05026 12.5139C10.3649 12.0129 11.8317 12.73 12.2435 14.0751C12.5619 15.1149 12.0056 16.2192 10.9804 16.5825L10.0926 16.897L7.81597 17.7046L8.06232 18.3969L10.8159 17.4202L10.8495 17.4504C11.8694 18.3692 13.4452 18.339 14.4286 17.3597L15.2647 16.5272L15.281 16.5094L15.282 16.5099L15.2994 16.4927L15.3242 16.5312Z" fill="#7D5FA3"/>
<path fill-rule="evenodd" clip-rule="evenodd" d="M11.9708 13.7361C11.5216 12.7109 10.3522 12.2101 9.2986 12.5918L3.2039 14.7997L2.90112 13.9665L8.99583 11.7586C10.4895 11.2175 12.1472 11.9274 12.7841 13.3808C13.4849 14.9801 12.6797 16.8371 11.0322 17.4215L8.00956 18.4937L7.71238 17.6585L10.7351 16.5863C11.8972 16.1741 12.4651 14.8642 11.9708 13.7361Z" fill="#7D5FA3"/>
<path fill-rule="evenodd" clip-rule="evenodd" d="M8.96976 11.6875C10.5009 11.1329 12.2003 11.8605 12.8533 13.3506C13.5718 14.9903 12.7462 16.8941 11.0573 17.4932L7.96328 18.5906L7.61528 17.6126L10.7095 16.5151C11.8302 16.1176 12.3777 14.8544 11.9011 13.7667C11.4679 12.7781 10.3403 12.2952 9.32418 12.6633L3.15827 14.8969L2.80371 13.9213L8.96976 11.6875ZM12.7144 13.4114C12.0936 11.9947 10.4775 11.3026 9.0214 11.8301L2.99805 14.0121L3.24904 14.7028L9.27254 12.5207C10.3636 12.1255 11.5747 12.644 12.04 13.7058C12.552 14.8744 11.9637 16.2311 10.7602 16.658L7.809 17.7048L8.05535 18.3971L11.0067 17.3503C12.6127 16.7806 13.3975 14.9703 12.7144 13.4114Z" fill="#7D5FA3"/>
</svg>
