<svg width="449" height="79" viewBox="0 0 449 79" fill="none" xmlns="http://www.w3.org/2000/svg">
<path d="M14.24 28.4C6.24 28.4 2.16 24.88 2.16 19.24V19H6.48V19.64C6.48 22.84 8.36 24.44 14.24 24.44C19.36 24.44 21.16 23.32 21.16 20.8C21.16 18.48 19.8 17.6 16.4 16.96L9.84 15.88C5.32 15.08 2.12 13 2.12 8.6C2.12 4.72 5.32 0.8 13.64 0.8C21.48 0.8 25.04 4.72 25.04 9.96V10.2H20.76V9.68C20.76 6.4 18.8 4.76 13.24 4.76C8.36 4.76 6.44 5.96 6.44 8.36C6.44 10.68 7.8 11.44 10.96 12.12L17.48 13.24C22.84 14.2 25.48 16.64 25.48 20.56C25.48 24.64 22.16 28.4 14.24 28.4ZM32.8669 5.8H28.5469V1.2H32.8669V5.8ZM32.8669 28H28.5469V8.12H32.8669V28ZM41.1872 28H36.8672V8.12H40.8272V14.12H41.0672C41.5872 10.8 43.7472 7.72 48.7072 7.72C53.2272 7.72 55.6672 10.48 56.2272 14.28H56.4672C56.9872 10.88 59.2272 7.72 64.2672 7.72C69.4272 7.72 72.0272 11.24 72.0272 16.04V28H67.7472V17.2C67.7472 13.28 66.1872 11.6 62.3472 11.6C58.1072 11.6 56.5872 13.76 56.5872 18.16V28H52.3072V17.2C52.3072 13.28 50.7872 11.6 46.9472 11.6C42.6672 11.6 41.1872 13.76 41.1872 18.16V28ZM80.2106 34.8H75.8906V8.12H79.8506V13.64H80.2106C81.0106 9.96 83.8106 7.72 88.4906 7.72C94.6506 7.72 98.1306 11.92 98.1306 18.08C98.1306 24.24 94.7306 28.4 88.5306 28.4C84.0506 28.4 81.1706 26.04 80.3706 22.4H80.2106V34.8ZM80.2106 18.4C80.2106 22.48 82.8106 24.48 87.0506 24.48C91.3306 24.48 93.8106 22.84 93.8106 18.08C93.8106 13.28 91.2906 11.68 87.1306 11.68C82.6906 11.68 80.2106 13.76 80.2106 18.04V18.4ZM105.445 28H101.125V1.2H105.445V28ZM113.765 5.8H109.445V1.2H113.765V5.8ZM113.765 28H109.445V8.12H113.765V28ZM123.606 28H119.286V11.72H116.286V8.12H119.326C119.806 3.76 123.126 1.2 128.766 1.2H130.726V4.4H128.086C124.926 4.4 123.286 5.24 123.526 8.12H130.726V11.72H123.606V28ZM136.317 34.8H133.477V30.88H137.357C139.117 30.88 139.837 30.4 140.437 29.04L140.917 28L131.117 8.12H135.957L141.037 18.68L142.997 23.44H143.317L145.197 18.64L149.877 8.12H154.637L144.277 30.16C142.637 33.72 140.397 34.8 136.317 34.8ZM16.76 72H12.48V62.76L0.72 45.2H6L12.32 54.72L14.56 58.12H14.88L17.08 54.72L23.36 45.2H28.68L16.76 62.84V72ZM40.5038 72.4C33.9038 72.4 29.4638 68.2 29.4638 62.08C29.4638 55.88 33.9038 51.72 40.5038 51.72C47.1438 51.72 51.5838 55.88 51.5838 62.08C51.5838 68.2 47.1438 72.4 40.5038 72.4ZM40.5038 68.56C45.3438 68.56 47.3438 66.28 47.3438 62.08C47.3438 57.84 45.3438 55.52 40.5038 55.52C35.7038 55.52 33.7038 57.84 33.7038 62.08C33.7038 66.28 35.7038 68.56 40.5038 68.56ZM62.9987 72.4C57.3988 72.4 54.6788 68.68 54.6788 64.08V52.12H58.9588V62.92C58.9588 66.64 60.6788 68.52 64.8788 68.52C69.2788 68.52 71.3188 66.28 71.3188 61.96V52.12H75.5988V72H71.6388V65.84H71.3988C70.7588 69.2 68.1188 72.4 62.9987 72.4ZM83.8434 72H79.5234V52.12H83.4834V57.48H83.7634C84.3634 54.28 86.5234 51.72 90.6034 51.72C95.1234 51.72 97.0834 54.96 97.0834 58.72V61.32H92.8034V59.56C92.8034 56.72 91.6034 55.4 88.6434 55.4C85.2434 55.4 83.8434 57.28 83.8434 60.84V72ZM118.633 72H112.273L105.193 45.2H109.993L114.353 62.16L115.553 67.84H115.873L117.313 62.16L122.713 45.2H128.993L134.753 62.16L136.273 67.84H136.593L137.713 62.16L141.713 45.2H146.433L139.713 72H133.353L127.953 56.4L125.993 49.52H125.633L123.713 56.4L118.633 72ZM158.977 72.4C152.457 72.4 148.177 68.72 148.177 62.08C148.177 55.88 152.417 51.72 158.897 51.72C165.057 51.72 169.257 55.12 169.257 61.16C169.257 61.88 169.217 62.44 169.097 63.04H152.217C152.377 66.88 154.257 68.92 158.857 68.92C163.017 68.92 164.737 67.56 164.737 65.2V64.88H169.057V65.24C169.057 69.48 164.897 72.4 158.977 72.4ZM158.817 55.12C154.417 55.12 152.497 57.08 152.257 60.64H165.177V60.56C165.177 56.88 163.057 55.12 158.817 55.12ZM176.452 72H172.492V45.2H176.812V57.52H177.052C177.852 54.16 180.492 51.72 185.252 51.72C191.372 51.72 194.732 55.88 194.732 62.08C194.732 68.2 191.332 72.4 185.012 72.4C180.492 72.4 177.572 70.24 176.732 66.28H176.452V72ZM176.812 62.28C176.812 66.44 179.372 68.44 183.652 68.44C188.012 68.44 190.412 66.84 190.412 62.08C190.412 57.28 187.972 55.64 183.732 55.64C179.252 55.64 176.812 57.72 176.812 61.96V62.28ZM209.007 72.4C200.607 72.4 196.927 68.68 196.927 63.24V62.6H201.487V63.16C201.487 66.68 202.927 68.32 208.847 68.32C214.407 68.32 216.407 67.04 216.407 63.88C216.407 61.16 214.567 59.92 211.207 59.92H203.727V56.32H210.607C213.847 56.32 215.527 55.12 215.527 52.72C215.527 50.12 213.927 48.88 208.727 48.88C203.247 48.88 201.487 50.52 201.487 54.04V54.32H196.927V53.96C196.927 48.72 200.767 44.8 209.087 44.8C215.927 44.8 219.807 47.32 219.807 51.88C219.807 54.92 218.007 57.08 214.567 57.64V57.96C218.447 58.64 220.767 60.8 220.767 64.52C220.767 69.6 216.327 72.4 209.007 72.4ZM252.057 72H230.617V45.2H252.057V49.08H234.937V56.6H251.457V60.44H234.937V68.12H252.057V72ZM258.702 72H253.542L262.102 62.16V61.92L253.542 52.12H258.782L265.382 59.64H265.622L272.142 52.12H277.342L268.782 61.84V62.08L277.342 72H272.102L265.502 64.4H265.222L258.702 72ZM283.765 78.8H279.445V52.12H283.405V57.64H283.765C284.565 53.96 287.365 51.72 292.045 51.72C298.205 51.72 301.685 55.92 301.685 62.08C301.685 68.24 298.285 72.4 292.085 72.4C287.605 72.4 284.725 70.04 283.925 66.4H283.765V78.8ZM283.765 62.4C283.765 66.48 286.365 68.48 290.605 68.48C294.885 68.48 297.365 66.84 297.365 62.08C297.365 57.28 294.845 55.68 290.685 55.68C286.245 55.68 283.765 57.76 283.765 62.04V62.4ZM314.68 72.4C308.16 72.4 303.88 68.72 303.88 62.08C303.88 55.88 308.12 51.72 314.6 51.72C320.76 51.72 324.96 55.12 324.96 61.16C324.96 61.88 324.92 62.44 324.8 63.04H307.92C308.08 66.88 309.96 68.92 314.56 68.92C318.72 68.92 320.44 67.56 320.44 65.2V64.88H324.76V65.24C324.76 69.48 320.6 72.4 314.68 72.4ZM314.52 55.12C310.12 55.12 308.2 57.08 307.96 60.64H320.88V60.56C320.88 56.88 318.76 55.12 314.52 55.12ZM332.515 72H328.195V52.12H332.155V57.48H332.435C333.035 54.28 335.195 51.72 339.275 51.72C343.795 51.72 345.755 54.96 345.755 58.72V61.32H341.475V59.56C341.475 56.72 340.275 55.4 337.315 55.4C333.915 55.4 332.515 57.28 332.515 60.84V72ZM352.789 49.8H348.469V45.2H352.789V49.8ZM352.789 72H348.469V52.12H352.789V72ZM366.789 72.4C360.269 72.4 355.989 68.72 355.989 62.08C355.989 55.88 360.229 51.72 366.709 51.72C372.869 51.72 377.069 55.12 377.069 61.16C377.069 61.88 377.029 62.44 376.909 63.04H360.029C360.189 66.88 362.069 68.92 366.669 68.92C370.829 68.92 372.549 67.56 372.549 65.2V64.88H376.869V65.24C376.869 69.48 372.709 72.4 366.789 72.4ZM366.629 55.12C362.229 55.12 360.309 57.08 360.069 60.64H372.989V60.56C372.989 56.88 370.869 55.12 366.629 55.12ZM384.625 72H380.305V52.12H384.265V58.28H384.545C385.145 54.92 387.785 51.72 392.825 51.72C398.345 51.72 401.065 55.44 401.065 60.04V72H396.745V61.2C396.745 57.48 395.065 55.6 390.945 55.6C386.585 55.6 384.625 57.84 384.625 62.16V72ZM414.954 72.4C408.394 72.4 404.114 68.2 404.114 62.08C404.114 55.88 408.394 51.72 414.954 51.72C420.914 51.72 425.274 55.08 425.274 60.04V60.44H420.994V60.2C420.994 57.12 418.754 55.6 414.874 55.6C410.394 55.6 408.394 57.72 408.394 62.08C408.394 66.36 410.394 68.52 414.874 68.52C418.754 68.52 420.994 67 420.994 63.92V63.64H425.274V64.08C425.274 69.04 420.914 72.4 414.954 72.4ZM438.469 72.4C431.949 72.4 427.669 68.72 427.669 62.08C427.669 55.88 431.909 51.72 438.389 51.72C444.549 51.72 448.749 55.12 448.749 61.16C448.749 61.88 448.709 62.44 448.589 63.04H431.709C431.869 66.88 433.749 68.92 438.349 68.92C442.509 68.92 444.229 67.56 444.229 65.2V64.88H448.549V65.24C448.549 69.48 444.389 72.4 438.469 72.4ZM438.309 55.12C433.909 55.12 431.989 57.08 431.749 60.64H444.669V60.56C444.669 56.88 442.549 55.12 438.309 55.12Z" fill="#7D5FA3"/>
</svg>
