<svg width="348" height="89" viewBox="0 0 348 89" fill="none" xmlns="http://www.w3.org/2000/svg">
<rect x="0.149109" y="0.296875" width="347" height="88" rx="16" fill="url(#paint0_linear_5555_14768)"/>
<path d="M38.2075 44.0059L38.2294 52.0146L45.0343 56.0189V60.7076L34.2469 54.3808V41.664L38.2075 44.0059ZM38.2075 35.9973V40.6641L34.2445 38.3198V33.6529L38.2075 31.3086L42.19 33.6529L38.2075 35.9973ZM47.8762 33.6529L51.8392 31.3086L55.8217 33.6529L51.8392 35.9973L47.8762 33.6529Z" fill="#7D5FA3"/>
<path d="M41.0711 50.3546V45.6659L45.0342 48.0103V52.6771L41.0711 50.3546ZM47.8761 57.6983L51.8391 60.0426L55.8216 57.6983V62.3651L51.8391 64.7095L47.8761 62.3651V57.6983ZM61.5053 33.6529L65.4684 31.3086L69.4509 33.6529V38.3198L65.4684 40.6641V35.9973L61.5053 33.6529ZM65.4684 52.0146L65.4902 44.0059L69.4533 41.6616V54.3783L58.6659 60.7052V56.0165L65.4684 52.0146Z" fill="#7D5FA3"/>
<path d="M62.6265 50.3567L58.6634 52.6792V48.0123L62.6265 45.668V50.3567Z" fill="#7D5FA3"/>
<path d="M62.6267 37.6518L62.6486 42.3405L55.8242 46.3448V54.3728L51.8612 56.6953L47.8981 54.3728V46.3448L41.0738 42.3405V37.6518L45.0538 35.3074L51.8369 39.3311L58.6612 35.3074L62.6437 37.6518H62.6267ZM41.0714 29.6455L51.8393 23.2969L62.6267 29.6455L58.6637 31.9899L51.8393 27.9662L45.0344 31.9899L41.0714 29.6455Z" fill="#7D5FA3"/>
<path d="M117.671 44.4449C119.015 44.6849 120.155 45.3929 121.091 46.5689C122.027 47.7449 122.495 49.0769 122.495 50.5649C122.495 51.8369 122.159 52.9889 121.487 54.0209C120.839 55.0289 119.891 55.8329 118.643 56.4329C117.395 57.0089 115.943 57.2969 114.287 57.2969H104.279V32.2769H113.819C115.523 32.2769 116.987 32.5649 118.211 33.1409C119.435 33.7169 120.359 34.4969 120.983 35.4809C121.607 36.4409 121.919 37.5209 121.919 38.7209C121.919 40.1609 121.535 41.3609 120.767 42.3209C119.999 43.2809 118.967 43.9889 117.671 44.4449ZM108.383 42.7889H113.459C114.803 42.7889 115.847 42.4889 116.591 41.8889C117.359 41.2649 117.743 40.3769 117.743 39.2249C117.743 38.0969 117.359 37.2209 116.591 36.5969C115.847 35.9489 114.803 35.6249 113.459 35.6249H108.383V42.7889ZM113.927 53.9489C115.319 53.9489 116.411 53.6129 117.203 52.9409C117.995 52.2689 118.391 51.3329 118.391 50.1329C118.391 48.9089 117.971 47.9369 117.131 47.2169C116.291 46.4969 115.175 46.1369 113.783 46.1369H108.383V53.9489H113.927ZM147.511 57.2969H143.407L131.059 38.6129V57.2969H126.955V32.2409H131.059L143.407 50.8889V32.2409H147.511V57.2969ZM166.292 44.4449C167.636 44.6849 168.776 45.3929 169.712 46.5689C170.648 47.7449 171.116 49.0769 171.116 50.5649C171.116 51.8369 170.78 52.9889 170.108 54.0209C169.46 55.0289 168.512 55.8329 167.264 56.4329C166.016 57.0089 164.564 57.2969 162.908 57.2969H152.9V32.2769H162.44C164.144 32.2769 165.608 32.5649 166.832 33.1409C168.056 33.7169 168.98 34.4969 169.604 35.4809C170.228 36.4409 170.54 37.5209 170.54 38.7209C170.54 40.1609 170.156 41.3609 169.388 42.3209C168.62 43.2809 167.588 43.9889 166.292 44.4449ZM157.004 42.7889H162.08C163.424 42.7889 164.468 42.4889 165.212 41.8889C165.98 41.2649 166.364 40.3769 166.364 39.2249C166.364 38.0969 165.98 37.2209 165.212 36.5969C164.468 35.9489 163.424 35.6249 162.08 35.6249H157.004V42.7889ZM162.548 53.9489C163.94 53.9489 165.032 53.6129 165.824 52.9409C166.616 52.2689 167.012 51.3329 167.012 50.1329C167.012 48.9089 166.592 47.9369 165.752 47.2169C164.912 46.4969 163.796 46.1369 162.404 46.1369H157.004V53.9489H162.548ZM183.559 44.7329C183.559 42.2849 184.123 40.0889 185.251 38.1449C186.403 36.2009 187.951 34.6889 189.895 33.6089C191.863 32.5049 194.011 31.9529 196.339 31.9529C199.003 31.9529 201.367 32.6129 203.431 33.9329C205.519 35.2289 207.031 37.0769 207.967 39.4769H203.035C202.387 38.1569 201.487 37.1729 200.335 36.5249C199.183 35.8769 197.851 35.5529 196.339 35.5529C194.683 35.5529 193.207 35.9249 191.911 36.6689C190.615 37.4129 189.595 38.4809 188.851 39.8729C188.131 41.2649 187.771 42.8849 187.771 44.7329C187.771 46.5809 188.131 48.2009 188.851 49.5929C189.595 50.9849 190.615 52.0649 191.911 52.8329C193.207 53.5769 194.683 53.9489 196.339 53.9489C197.851 53.9489 199.183 53.6249 200.335 52.9769C201.487 52.3289 202.387 51.3449 203.035 50.0249H207.967C207.031 52.4249 205.519 54.2729 203.431 55.5689C201.367 56.8649 199.003 57.5129 196.339 57.5129C193.987 57.5129 191.839 56.9729 189.895 55.8929C187.951 54.7889 186.403 53.2649 185.251 51.3209C184.123 49.3769 183.559 47.1809 183.559 44.7329ZM223.031 37.1369C224.543 37.1369 225.887 37.4609 227.063 38.1089C228.263 38.7569 229.199 39.7169 229.871 40.9889C230.567 42.2609 230.915 43.7969 230.915 45.5969V57.2969H226.847V46.2089C226.847 44.4329 226.403 43.0769 225.515 42.1409C224.627 41.1809 223.415 40.7009 221.879 40.7009C220.343 40.7009 219.119 41.1809 218.207 42.1409C217.319 43.0769 216.875 44.4329 216.875 46.2089V57.2969H212.771V30.6569H216.875V39.7649C217.571 38.9249 218.447 38.2769 219.503 37.8209C220.583 37.3649 221.759 37.1369 223.031 37.1369ZM234.782 47.2889C234.782 45.2969 235.19 43.5329 236.006 41.9969C236.846 40.4609 237.974 39.2729 239.39 38.4329C240.83 37.5689 242.414 37.1369 244.142 37.1369C245.702 37.1369 247.058 37.4489 248.21 38.0729C249.386 38.6729 250.322 39.4289 251.018 40.3409V37.4609H255.158V57.2969H251.018V54.3449C250.322 55.2809 249.374 56.0609 248.174 56.6849C246.974 57.3089 245.606 57.6209 244.07 57.6209C242.366 57.6209 240.806 57.1889 239.39 56.3249C237.974 55.4369 236.846 54.2129 236.006 52.6529C235.19 51.0689 234.782 49.2809 234.782 47.2889ZM251.018 47.3609C251.018 45.9929 250.73 44.8049 250.154 43.7969C249.602 42.7889 248.87 42.0209 247.958 41.4929C247.046 40.9649 246.062 40.7009 245.006 40.7009C243.95 40.7009 242.966 40.9649 242.054 41.4929C241.142 41.9969 240.398 42.7529 239.822 43.7609C239.27 44.7449 238.994 45.9209 238.994 47.2889C238.994 48.6569 239.27 49.8569 239.822 50.8889C240.398 51.9209 241.142 52.7129 242.054 53.2649C242.99 53.7929 243.974 54.0569 245.006 54.0569C246.062 54.0569 247.046 53.7929 247.958 53.2649C248.87 52.7369 249.602 51.9689 250.154 50.9609C250.73 49.9289 251.018 48.7289 251.018 47.3609ZM262.636 34.8329C261.892 34.8329 261.268 34.5809 260.764 34.0769C260.26 33.5729 260.008 32.9489 260.008 32.2049C260.008 31.4609 260.26 30.8369 260.764 30.3329C261.268 29.8289 261.892 29.5769 262.636 29.5769C263.356 29.5769 263.968 29.8289 264.472 30.3329C264.976 30.8369 265.228 31.4609 265.228 32.2049C265.228 32.9489 264.976 33.5729 264.472 34.0769C263.968 34.5809 263.356 34.8329 262.636 34.8329ZM264.652 37.4609V57.2969H260.548V37.4609H264.652ZM280.049 37.1369C281.609 37.1369 283.001 37.4609 284.225 38.1089C285.473 38.7569 286.445 39.7169 287.141 40.9889C287.837 42.2609 288.185 43.7969 288.185 45.5969V57.2969H284.117V46.2089C284.117 44.4329 283.673 43.0769 282.785 42.1409C281.897 41.1809 280.685 40.7009 279.149 40.7009C277.613 40.7009 276.389 41.1809 275.477 42.1409C274.589 43.0769 274.145 44.4329 274.145 46.2089V57.2969H270.041V37.4609H274.145V39.7289C274.817 38.9129 275.669 38.2769 276.701 37.8209C277.757 37.3649 278.873 37.1369 280.049 37.1369Z" fill="#7D5FA3"/>
<defs>
<linearGradient id="paint0_linear_5555_14768" x1="5.88347" y1="6.01492" x2="339.061" y2="93.0325" gradientUnits="userSpaceOnUse">
<stop stop-color="#FFFA78"/>
<stop offset="1" stop-color="#FFD15C"/>
</linearGradient>
</defs>
</svg>
