<svg width="404" height="89" viewBox="0 0 404 89" fill="none" xmlns="http://www.w3.org/2000/svg">
<rect x="0.747437" y="0.378906" width="403" height="88" rx="16" fill="url(#paint0_linear_5555_14776)"/>
<path fill-rule="evenodd" clip-rule="evenodd" d="M44.9622 62.8068C47.4286 63.8501 50.0476 64.3789 52.7474 64.3789C55.4468 64.3789 58.0663 63.8501 60.5327 62.8068C62.9143 61.7996 65.0532 60.3573 66.8895 58.521C68.7258 56.6847 70.1681 54.5458 71.1753 52.1642C72.2186 49.6978 72.7474 47.0783 72.7474 44.3789C72.7474 41.6791 72.2186 39.0601 71.1753 36.5936C70.1681 34.212 68.7258 32.0731 66.8895 30.2368C65.0532 28.4005 62.9143 26.9582 60.5327 25.951C58.0663 24.9082 55.4472 24.3789 52.7474 24.3789C50.0476 24.3789 47.4286 24.9077 44.9622 25.951C42.5805 26.9582 40.4417 28.4005 38.6054 30.2368C36.769 32.0731 35.3268 34.212 34.3196 36.5936C33.2762 39.0601 32.7474 41.6791 32.7474 44.3789C32.7474 47.0787 33.2762 49.6978 34.3196 52.1642C35.3268 54.5458 36.769 56.6847 38.6054 58.521C40.4417 60.3573 42.5805 61.7996 44.9622 62.8068ZM53.6288 42.6161C52.0967 43.8003 50.3755 45.1306 50.6958 47.5253H54.1625C53.9477 45.6725 55.3215 44.6308 56.7386 43.5563C58.1361 42.4967 59.5758 41.4051 59.5758 39.472C59.5758 35.9253 56.7492 34.112 52.8825 34.112C50.0292 34.112 47.6825 35.4187 45.9758 37.392L48.1625 39.392C49.4692 38.032 50.8025 37.2853 52.4292 37.2853C54.5358 37.2853 55.8158 38.192 55.8158 39.8187C55.8158 40.9258 54.7753 41.73 53.6288 42.6161ZM50.0825 52.272C50.0825 53.6587 51.0692 54.6453 52.4558 54.6453C53.7892 54.6453 54.8025 53.6587 54.8025 52.272C54.8025 50.8853 53.7892 49.9253 52.4558 49.9253C51.0958 49.9253 50.0825 50.8853 50.0825 52.272Z" fill="#7D5FA3"/>
<path d="M103.156 44.8149C103.156 42.3669 103.72 40.1709 104.848 38.2269C106 36.2829 107.548 34.7709 109.492 33.6909C111.46 32.5869 113.608 32.0349 115.936 32.0349C118.6 32.0349 120.964 32.6949 123.028 34.0149C125.116 35.3109 126.628 37.1589 127.564 39.5589H122.632C121.984 38.2389 121.084 37.2549 119.932 36.6069C118.78 35.9589 117.448 35.6349 115.936 35.6349C114.28 35.6349 112.804 36.0069 111.508 36.7509C110.212 37.4949 109.192 38.5629 108.448 39.9549C107.728 41.3469 107.368 42.9669 107.368 44.8149C107.368 46.6629 107.728 48.2829 108.448 49.6749C109.192 51.0669 110.212 52.1469 111.508 52.9149C112.804 53.6589 114.28 54.0309 115.936 54.0309C117.448 54.0309 118.78 53.7069 119.932 53.0589C121.084 52.4109 121.984 51.4269 122.632 50.1069H127.564C126.628 52.5069 125.116 54.3549 123.028 55.6509C120.964 56.9469 118.6 57.5949 115.936 57.5949C113.584 57.5949 111.436 57.0549 109.492 55.9749C107.548 54.8709 106 53.3469 104.848 51.4029C103.72 49.4589 103.156 47.2629 103.156 44.8149ZM140.971 57.7029C139.099 57.7029 137.407 57.2829 135.895 56.4429C134.383 55.5789 133.195 54.3789 132.331 52.8429C131.467 51.2829 131.035 49.4829 131.035 47.4429C131.035 45.4269 131.479 43.6389 132.367 42.0789C133.255 40.5189 134.467 39.3189 136.003 38.4789C137.539 37.6389 139.255 37.2189 141.151 37.2189C143.047 37.2189 144.763 37.6389 146.299 38.4789C147.835 39.3189 149.047 40.5189 149.935 42.0789C150.823 43.6389 151.267 45.4269 151.267 47.4429C151.267 49.4589 150.811 51.2469 149.899 52.8069C148.987 54.3669 147.739 55.5789 146.155 56.4429C144.595 57.2829 142.867 57.7029 140.971 57.7029ZM140.971 54.1389C142.027 54.1389 143.011 53.8869 143.923 53.3829C144.859 52.8789 145.615 52.1229 146.191 51.1149C146.767 50.1069 147.055 48.8829 147.055 47.4429C147.055 46.0029 146.779 44.7909 146.227 43.8069C145.675 42.7989 144.943 42.0429 144.031 41.5389C143.119 41.0349 142.135 40.7829 141.079 40.7829C140.023 40.7829 139.039 41.0349 138.127 41.5389C137.239 42.0429 136.531 42.7989 136.003 43.8069C135.475 44.7909 135.211 46.0029 135.211 47.4429C135.211 49.5789 135.751 51.2349 136.831 52.4109C137.935 53.5629 139.315 54.1389 140.971 54.1389ZM179.336 37.2189C180.896 37.2189 182.288 37.5429 183.512 38.1909C184.76 38.8389 185.732 39.7989 186.428 41.0709C187.148 42.3429 187.508 43.8789 187.508 45.6789V57.3789H183.44V46.2909C183.44 44.5149 182.996 43.1589 182.108 42.2229C181.22 41.2629 180.008 40.7829 178.472 40.7829C176.936 40.7829 175.712 41.2629 174.8 42.2229C173.912 43.1589 173.468 44.5149 173.468 46.2909V57.3789H169.4V46.2909C169.4 44.5149 168.956 43.1589 168.068 42.2229C167.18 41.2629 165.968 40.7829 164.432 40.7829C162.896 40.7829 161.672 41.2629 160.76 42.2229C159.872 43.1589 159.428 44.5149 159.428 46.2909V57.3789H155.324V37.5429H159.428V39.8109C160.1 38.9949 160.952 38.3589 161.984 37.9029C163.016 37.4469 164.12 37.2189 165.296 37.2189C166.88 37.2189 168.296 37.5549 169.544 38.2269C170.792 38.8989 171.752 39.8709 172.424 41.1429C173.024 39.9429 173.96 38.9949 175.232 38.2989C176.504 37.5789 177.872 37.2189 179.336 37.2189ZM194.819 34.9149C194.075 34.9149 193.451 34.6629 192.947 34.1589C192.443 33.6549 192.191 33.0309 192.191 32.2869C192.191 31.5429 192.443 30.9189 192.947 30.4149C193.451 29.9109 194.075 29.6589 194.819 29.6589C195.539 29.6589 196.151 29.9109 196.655 30.4149C197.159 30.9189 197.411 31.5429 197.411 32.2869C197.411 33.0309 197.159 33.6549 196.655 34.1589C196.151 34.6629 195.539 34.9149 194.819 34.9149ZM196.835 37.5429V57.3789H192.731V37.5429H196.835ZM212.231 37.2189C213.791 37.2189 215.183 37.5429 216.407 38.1909C217.655 38.8389 218.627 39.7989 219.323 41.0709C220.019 42.3429 220.367 43.8789 220.367 45.6789V57.3789H216.299V46.2909C216.299 44.5149 215.855 43.1589 214.967 42.2229C214.079 41.2629 212.867 40.7829 211.331 40.7829C209.795 40.7829 208.571 41.2629 207.659 42.2229C206.771 43.1589 206.327 44.5149 206.327 46.2909V57.3789H202.223V37.5429H206.327V39.8109C206.999 38.9949 207.851 38.3589 208.883 37.9029C209.939 37.4469 211.055 37.2189 212.231 37.2189ZM233.594 37.2189C235.13 37.2189 236.486 37.5309 237.662 38.1549C238.862 38.7549 239.798 39.5109 240.47 40.4229V37.5429H244.61V57.7029C244.61 59.5269 244.226 61.1469 243.458 62.5629C242.69 64.0029 241.574 65.1309 240.11 65.9469C238.67 66.7629 236.942 67.1709 234.926 67.1709C232.238 67.1709 230.006 66.5349 228.23 65.2629C226.454 64.0149 225.446 62.3109 225.206 60.1509H229.274C229.586 61.1829 230.246 62.0109 231.254 62.6349C232.286 63.2829 233.51 63.6069 234.926 63.6069C236.582 63.6069 237.914 63.1029 238.922 62.0949C239.954 61.0869 240.47 59.6229 240.47 57.7029V54.3909C239.774 55.3269 238.826 56.1189 237.626 56.7669C236.45 57.3909 235.106 57.7029 233.594 57.7029C231.866 57.7029 230.282 57.2709 228.842 56.4069C227.426 55.5189 226.298 54.2949 225.458 52.7349C224.642 51.1509 224.234 49.3629 224.234 47.3709C224.234 45.3789 224.642 43.6149 225.458 42.0789C226.298 40.5429 227.426 39.3549 228.842 38.5149C230.282 37.6509 231.866 37.2189 233.594 37.2189ZM240.47 47.4429C240.47 46.0749 240.182 44.8869 239.606 43.8789C239.054 42.8709 238.322 42.1029 237.41 41.5749C236.498 41.0469 235.514 40.7829 234.458 40.7829C233.402 40.7829 232.418 41.0469 231.506 41.5749C230.594 42.0789 229.85 42.8349 229.274 43.8429C228.722 44.8269 228.446 46.0029 228.446 47.3709C228.446 48.7389 228.722 49.9389 229.274 50.9709C229.85 52.0029 230.594 52.7949 231.506 53.3469C232.442 53.8749 233.426 54.1389 234.458 54.1389C235.514 54.1389 236.498 53.8749 237.41 53.3469C238.322 52.8189 239.054 52.0509 239.606 51.0429C240.182 50.0109 240.47 48.8109 240.47 47.4429ZM267.596 57.6309C265.916 57.6309 264.404 57.3429 263.06 56.7669C261.716 56.1669 260.66 55.3269 259.892 54.2469C259.124 53.1669 258.74 51.9069 258.74 50.4669H263.132C263.228 51.5469 263.648 52.4349 264.392 53.1309C265.16 53.8269 266.228 54.1749 267.596 54.1749C269.012 54.1749 270.116 53.8389 270.908 53.1669C271.7 52.4709 272.096 51.5829 272.096 50.5029C272.096 49.6629 271.844 48.9789 271.34 48.4509C270.86 47.9229 270.248 47.5149 269.504 47.2269C268.784 46.9389 267.776 46.6269 266.48 46.2909C264.848 45.8589 263.516 45.4269 262.484 44.9949C261.476 44.5389 260.612 43.8429 259.892 42.9069C259.172 41.9709 258.812 40.7229 258.812 39.1629C258.812 37.7229 259.172 36.4629 259.892 35.3829C260.612 34.3029 261.62 33.4749 262.916 32.8989C264.212 32.3229 265.712 32.0349 267.416 32.0349C269.84 32.0349 271.82 32.6469 273.356 33.8709C274.916 35.0709 275.78 36.7269 275.948 38.8389H271.412C271.34 37.9269 270.908 37.1469 270.116 36.4989C269.324 35.8509 268.28 35.5269 266.984 35.5269C265.808 35.5269 264.848 35.8269 264.104 36.4269C263.36 37.0269 262.988 37.8909 262.988 39.0189C262.988 39.7869 263.216 40.4229 263.672 40.9269C264.152 41.4069 264.752 41.7909 265.472 42.0789C266.192 42.3669 267.176 42.6789 268.424 43.0149C270.08 43.4709 271.424 43.9269 272.456 44.3829C273.512 44.8389 274.4 45.5469 275.12 46.5069C275.864 47.4429 276.236 48.7029 276.236 50.2869C276.236 51.5589 275.888 52.7589 275.192 53.8869C274.52 55.0149 273.524 55.9269 272.204 56.6229C270.908 57.2949 269.372 57.6309 267.596 57.6309ZM289.682 57.7029C287.81 57.7029 286.118 57.2829 284.606 56.4429C283.094 55.5789 281.906 54.3789 281.042 52.8429C280.178 51.2829 279.746 49.4829 279.746 47.4429C279.746 45.4269 280.19 43.6389 281.078 42.0789C281.966 40.5189 283.178 39.3189 284.714 38.4789C286.25 37.6389 287.966 37.2189 289.862 37.2189C291.758 37.2189 293.474 37.6389 295.01 38.4789C296.546 39.3189 297.758 40.5189 298.646 42.0789C299.534 43.6389 299.978 45.4269 299.978 47.4429C299.978 49.4589 299.522 51.2469 298.61 52.8069C297.698 54.3669 296.45 55.5789 294.866 56.4429C293.306 57.2829 291.578 57.7029 289.682 57.7029ZM289.682 54.1389C290.738 54.1389 291.722 53.8869 292.634 53.3829C293.57 52.8789 294.326 52.1229 294.902 51.1149C295.478 50.1069 295.766 48.8829 295.766 47.4429C295.766 46.0029 295.49 44.7909 294.938 43.8069C294.386 42.7989 293.654 42.0429 292.742 41.5389C291.83 41.0349 290.846 40.7829 289.79 40.7829C288.734 40.7829 287.75 41.0349 286.838 41.5389C285.95 42.0429 285.242 42.7989 284.714 43.8069C284.186 44.7909 283.922 46.0029 283.922 47.4429C283.922 49.5789 284.462 51.2349 285.542 52.4109C286.646 53.5629 288.026 54.1389 289.682 54.1389ZM312.639 57.7029C310.767 57.7029 309.075 57.2829 307.563 56.4429C306.051 55.5789 304.863 54.3789 303.999 52.8429C303.135 51.2829 302.703 49.4829 302.703 47.4429C302.703 45.4269 303.147 43.6389 304.035 42.0789C304.923 40.5189 306.135 39.3189 307.671 38.4789C309.207 37.6389 310.923 37.2189 312.819 37.2189C314.715 37.2189 316.431 37.6389 317.967 38.4789C319.503 39.3189 320.715 40.5189 321.603 42.0789C322.491 43.6389 322.935 45.4269 322.935 47.4429C322.935 49.4589 322.479 51.2469 321.567 52.8069C320.655 54.3669 319.407 55.5789 317.823 56.4429C316.263 57.2829 314.535 57.7029 312.639 57.7029ZM312.639 54.1389C313.695 54.1389 314.679 53.8869 315.591 53.3829C316.527 52.8789 317.283 52.1229 317.859 51.1149C318.435 50.1069 318.723 48.8829 318.723 47.4429C318.723 46.0029 318.447 44.7909 317.895 43.8069C317.343 42.7989 316.611 42.0429 315.699 41.5389C314.787 41.0349 313.803 40.7829 312.747 40.7829C311.691 40.7829 310.707 41.0349 309.795 41.5389C308.907 42.0429 308.199 42.7989 307.671 43.8069C307.143 44.7909 306.879 46.0029 306.879 47.4429C306.879 49.5789 307.419 51.2349 308.499 52.4109C309.603 53.5629 310.983 54.1389 312.639 54.1389ZM337 37.2189C338.56 37.2189 339.952 37.5429 341.176 38.1909C342.424 38.8389 343.396 39.7989 344.092 41.0709C344.788 42.3429 345.136 43.8789 345.136 45.6789V57.3789H341.068V46.2909C341.068 44.5149 340.624 43.1589 339.736 42.2229C338.848 41.2629 337.636 40.7829 336.1 40.7829C334.564 40.7829 333.34 41.2629 332.428 42.2229C331.54 43.1589 331.096 44.5149 331.096 46.2909V57.3789H326.992V37.5429H331.096V39.8109C331.768 38.9949 332.62 38.3589 333.652 37.9029C334.708 37.4469 335.824 37.2189 337 37.2189Z" fill="#7D5FA3"/>
<defs>
<linearGradient id="paint0_linear_5555_14776" x1="1.29337" y1="0.262315" x2="421.931" y2="89.7423" gradientUnits="userSpaceOnUse">
<stop stop-color="#84FFBC"/>
<stop offset="1" stop-color="#89E3FF"/>
</linearGradient>
</defs>
</svg>
