<svg width="332" height="88" viewBox="0 0 332 88" fill="none" xmlns="http://www.w3.org/2000/svg">
<rect width="332" height="88" rx="16" fill="url(#paint0_linear_5555_14783)"/>
<path d="M51.939 20L37 45.0976L51.939 54.061L66.878 45.0976L51.939 20ZM37 48.0854L51.939 69L66.878 48.0854L51.939 57.0488L37 48.0854Z" fill="#7D5FA3"/>
<path d="M107.958 35.292V42.636H116.598V45.984H107.958V53.652H117.678V57H103.854V31.944H117.678V35.292H107.958ZM127.521 40.512V51.492C127.521 52.236 127.689 52.776 128.025 53.112C128.385 53.424 128.985 53.58 129.825 53.58H132.345V57H129.105C127.257 57 125.841 56.568 124.857 55.704C123.873 54.84 123.381 53.436 123.381 51.492V40.512H121.041V37.164H123.381V32.232H127.521V37.164H132.345V40.512H127.521ZM146.388 36.84C147.9 36.84 149.244 37.164 150.42 37.812C151.62 38.46 152.556 39.42 153.228 40.692C153.924 41.964 154.272 43.5 154.272 45.3V57H150.204V45.912C150.204 44.136 149.76 42.78 148.872 41.844C147.984 40.884 146.772 40.404 145.236 40.404C143.7 40.404 142.476 40.884 141.564 41.844C140.676 42.78 140.232 44.136 140.232 45.912V57H136.128V30.36H140.232V39.468C140.928 38.628 141.804 37.98 142.86 37.524C143.94 37.068 145.116 36.84 146.388 36.84ZM177.687 46.596C177.687 47.34 177.639 48.012 177.543 48.612H162.387C162.507 50.196 163.095 51.468 164.151 52.428C165.207 53.388 166.503 53.868 168.039 53.868C170.247 53.868 171.807 52.944 172.719 51.096H177.147C176.547 52.92 175.455 54.42 173.871 55.596C172.311 56.748 170.367 57.324 168.039 57.324C166.143 57.324 164.439 56.904 162.927 56.064C161.439 55.2 160.263 54 159.399 52.464C158.559 50.904 158.139 49.104 158.139 47.064C158.139 45.024 158.547 43.236 159.363 41.7C160.203 40.14 161.367 38.94 162.855 38.1C164.367 37.26 166.095 36.84 168.039 36.84C169.911 36.84 171.579 37.248 173.043 38.064C174.507 38.88 175.647 40.032 176.463 41.52C177.279 42.984 177.687 44.676 177.687 46.596ZM173.403 45.3C173.379 43.788 172.839 42.576 171.783 41.664C170.727 40.752 169.419 40.296 167.859 40.296C166.443 40.296 165.231 40.752 164.223 41.664C163.215 42.552 162.615 43.764 162.423 45.3H173.403ZM185.829 40.044C186.429 39.036 187.221 38.256 188.205 37.704C189.213 37.128 190.401 36.84 191.769 36.84V41.088H190.725C189.117 41.088 187.893 41.496 187.053 42.312C186.237 43.128 185.829 44.544 185.829 46.56V57H181.725V37.164H185.829V40.044ZM213.722 46.596C213.722 47.34 213.674 48.012 213.578 48.612H198.422C198.542 50.196 199.13 51.468 200.186 52.428C201.242 53.388 202.538 53.868 204.074 53.868C206.282 53.868 207.842 52.944 208.754 51.096H213.182C212.582 52.92 211.49 54.42 209.906 55.596C208.346 56.748 206.402 57.324 204.074 57.324C202.178 57.324 200.474 56.904 198.962 56.064C197.474 55.2 196.298 54 195.434 52.464C194.594 50.904 194.174 49.104 194.174 47.064C194.174 45.024 194.582 43.236 195.398 41.7C196.238 40.14 197.402 38.94 198.89 38.1C200.402 37.26 202.13 36.84 204.074 36.84C205.946 36.84 207.614 37.248 209.078 38.064C210.542 38.88 211.682 40.032 212.498 41.52C213.314 42.984 213.722 44.676 213.722 46.596ZM209.438 45.3C209.414 43.788 208.874 42.576 207.818 41.664C206.762 40.752 205.454 40.296 203.894 40.296C202.478 40.296 201.266 40.752 200.258 41.664C199.25 42.552 198.65 43.764 198.458 45.3H209.438ZM235.725 37.164V57H231.621V54.66C230.973 55.476 230.121 56.124 229.065 56.604C228.033 57.06 226.929 57.288 225.753 57.288C224.193 57.288 222.789 56.964 221.541 56.316C220.317 55.668 219.345 54.708 218.625 53.436C217.929 52.164 217.581 50.628 217.581 48.828V37.164H221.649V48.216C221.649 49.992 222.093 51.36 222.981 52.32C223.869 53.256 225.081 53.724 226.617 53.724C228.153 53.724 229.365 53.256 230.253 52.32C231.165 51.36 231.621 49.992 231.621 48.216V37.164H235.725ZM265.151 36.84C266.711 36.84 268.103 37.164 269.327 37.812C270.575 38.46 271.547 39.42 272.243 40.692C272.963 41.964 273.323 43.5 273.323 45.3V57H269.255V45.912C269.255 44.136 268.811 42.78 267.923 41.844C267.035 40.884 265.823 40.404 264.287 40.404C262.751 40.404 261.527 40.884 260.615 41.844C259.727 42.78 259.283 44.136 259.283 45.912V57H255.215V45.912C255.215 44.136 254.771 42.78 253.883 41.844C252.995 40.884 251.783 40.404 250.247 40.404C248.711 40.404 247.487 40.884 246.575 41.844C245.687 42.78 245.243 44.136 245.243 45.912V57H241.139V37.164H245.243V39.432C245.915 38.616 246.767 37.98 247.799 37.524C248.831 37.068 249.935 36.84 251.111 36.84C252.695 36.84 254.111 37.176 255.359 37.848C256.607 38.52 257.567 39.492 258.239 40.764C258.839 39.564 259.775 38.616 261.047 37.92C262.319 37.2 263.687 36.84 265.151 36.84Z" fill="#7D5FA3"/>
<defs>
<linearGradient id="paint0_linear_5555_14783" x1="3.00383e-06" y1="5.99999" x2="331.268" y2="90.8586" gradientUnits="userSpaceOnUse">
<stop stop-color="#D2C1FF"/>
<stop offset="1" stop-color="#91E5FF"/>
</linearGradient>
</defs>
</svg>
