<svg width="24" height="24" viewBox="0 0 24 24" fill="none" xmlns="http://www.w3.org/2000/svg">
<g id="24_icon_clear">
<path id="Union" fill-rule="evenodd" clip-rule="evenodd" d="M6.31579 3.5L7.08341 5.54758L9.15789 6.30525L7.08341 7.06292L6.31579 9.11049L5.54816 7.06292L3.47368 6.30525L5.54816 5.54758L6.31579 3.5ZM17.0028 9.72781L20.586 6.18889V6.18861C20.7139 6.0701 20.8164 5.92747 20.8874 5.76916C20.9585 5.61085 20.9966 5.44008 20.9996 5.26696C21.0026 5.09384 20.9704 4.92188 20.9049 4.76127C20.8393 4.60067 20.7418 4.45467 20.6181 4.33192C20.4944 4.20917 20.3469 4.11217 20.1846 4.04666C20.0222 3.98114 19.8481 3.94845 19.6727 3.95051C19.4973 3.95257 19.3241 3.98935 19.1634 4.05866C19.0026 4.12797 18.8576 4.2284 18.7369 4.35403L15.1346 7.87355C15.0911 7.88768 15.0453 7.89433 14.9998 7.89239C13.6128 7.11644 12.0136 7.11644 10.781 8.27095C10.7718 8.27945 10.7645 8.28971 10.7595 8.3011C10.7545 8.31249 10.752 8.32477 10.752 8.33718C10.752 8.3496 10.7545 8.36187 10.7595 8.37327C10.7645 8.38466 10.7718 8.39492 10.781 8.40342L16.4635 14.0056C16.4722 14.0145 16.4827 14.0216 16.4942 14.0265C16.5058 14.0314 16.5183 14.0339 16.5308 14.0339C16.5434 14.0339 16.5559 14.0314 16.5675 14.0265C16.579 14.0216 16.5895 14.0145 16.5982 14.0056C17.7733 12.7942 17.7926 11.2232 16.9832 9.86056C16.9832 9.83219 16.9881 9.81328 16.993 9.79436C16.9979 9.77539 17.0028 9.75639 17.0028 9.72781ZM9.62054 9.27875L15.4325 14.9155C13.7647 17.4596 13.1582 21.5001 13.1582 21.5001L9.62054 19.5048C9.62054 19.5048 10.6313 16.861 12.198 15.7137C10.3281 16.3123 8.45816 18.6568 8.45816 18.6568C8.45816 18.6568 5.88069 16.6614 4.92046 14.9155L7.04308 12.6209C5.88069 12.7207 4.06131 13.5188 4.06131 13.5188C4.06131 13.5188 3.26954 12.2052 3 11.5734C4.76885 11.1743 7.44739 10.3762 9.62054 9.27875ZM18.7976 16.4273L18.1579 14.721L17.5182 16.4273L15.7895 17.0587L17.5182 17.6901L18.1579 19.3964L18.7976 17.6901L20.5263 17.0587L18.7976 16.4273Z" fill="white"/>
</g>
</svg>
