<svg width="78" height="30" viewBox="0 0 78 30" fill="none" xmlns="http://www.w3.org/2000/svg">
<g id="Group 17343">
<g id="Group 17338">
<path id="Subtract" fill-rule="evenodd" clip-rule="evenodd" d="M9.73748 10.2362V3.64275C9.73748 1.68674 8.14066 0.101074 6.17089 0.101074C4.20112 0.101074 2.6043 1.68674 2.6043 3.64275V15.7635C2.03545 16.1402 1.53299 16.6226 1.12813 17.1946C0.152137 18.5735 -0.147363 20.3195 0.313371 21.9445L0.686895 23.2619C2.04119 28.0385 7.2038 30.6256 11.8445 28.8533L16.6469 27.0193C16.9756 26.8938 17.2846 26.7349 17.5708 26.5473H22.8069C24.7812 26.5473 26.3817 24.9852 26.3817 23.0581C26.3817 21.1311 24.7812 19.5689 22.8069 19.5689H18.9676L19.53 19.0089C20.7131 17.8308 20.7131 15.9207 19.53 14.7425L18.772 13.9877C18.0703 13.289 17.11 13.0047 16.1978 13.1348C16.3914 12.1777 16.1156 11.1452 15.3704 10.4031L14.6124 9.64825C13.4292 8.47014 11.511 8.47014 10.3279 9.64825L9.73748 10.2362ZM8.54861 11.42V3.64275C8.54861 2.33874 7.48407 1.28163 6.17089 1.28163C4.85771 1.28163 3.79316 2.33874 3.79316 3.64275V15.7938L3.79305 16.1831L6.68262 15.1363C6.57561 14.1092 6.91734 13.0444 7.70781 12.2573L8.54861 11.42ZM1.45708 21.6207C1.11928 20.4293 1.30048 19.1552 1.94745 18.1089L3.34425 17.6029L9.70342 15.1796C11.4016 14.5325 13.2965 15.4589 13.8285 17.1964C14.2371 18.5311 13.5231 19.9484 12.2072 20.4147L11.0234 20.8341L7.89257 21.9446L8.2888 23.0582L11.9987 21.7423C13.3983 23.0031 15.5604 22.9617 16.9099 21.6179L17.9823 20.5501L17.9839 20.5526L17.9979 20.5373L18.2663 20.6728C18.3432 20.7117 18.4282 20.7319 18.5144 20.7319L22.8069 20.732C24.1231 20.732 25.1901 21.7734 25.1901 23.0581C25.1901 24.3428 24.1231 25.3843 22.8069 25.3843H17.8929L17.8921 25.3851H17.1553C16.8767 25.6014 16.5636 25.7794 16.2225 25.9097L11.4201 27.7437C7.43163 29.2669 2.99457 27.0434 1.8306 22.9381L1.45708 21.6207ZM14.6548 16.241C15.4496 18.0547 14.7917 20.117 13.2257 21.1724C14.1313 21.6787 15.299 21.5482 16.0695 20.7811L18.6896 18.172C19.4086 17.4561 19.4086 16.2953 18.6896 15.5794L17.9316 14.8246C17.2126 14.1087 16.0469 14.1087 15.3279 14.8246L14.3984 15.7502C14.4938 15.9057 14.5797 16.0695 14.6548 16.241ZM9.60382 14.0781C11.0002 13.5722 12.5042 13.8864 13.5711 14.7874L14.53 13.8325C15.2489 13.1166 15.2489 11.9559 14.53 11.2399L13.7719 10.4851C13.053 9.76918 11.8873 9.76918 11.1683 10.4851L8.54822 13.0941C8.09822 13.5422 7.86636 14.1253 7.85265 14.7125L9.60382 14.0781Z" fill="white"/>
<path id="Subtract (Stroke)" fill-rule="evenodd" clip-rule="evenodd" d="M6.1704 0.202155C4.25579 0.202155 2.70489 1.74323 2.70489 3.64276V15.8178L2.65962 15.8478C2.10105 16.2177 1.60769 16.6913 1.21015 17.253C0.251812 18.6069 -0.042263 20.3214 0.410131 21.917L0.783654 23.2344C2.12174 27.9537 7.22264 30.51 11.8079 28.7589L16.6103 26.9249C16.9322 26.802 17.2348 26.6464 17.5149 26.4628L17.5402 26.4463H22.8064C24.7272 26.4463 26.2801 24.9271 26.2801 23.0581C26.2801 21.1892 24.7272 19.67 22.8064 19.67H18.7223L19.4582 18.9373C20.6016 17.7987 20.6016 15.9528 19.4582 14.8142L18.7002 14.0594C18.0219 13.384 17.0938 13.109 16.2116 13.2348L16.0699 13.2551L16.0983 13.1147C16.2854 12.1896 16.0188 11.1919 15.2986 10.4747L14.5405 9.71988C13.3969 8.58103 11.5424 8.58103 10.3987 9.71988L9.63592 10.4795V3.64275C9.63592 1.74323 8.08502 0.202155 6.1704 0.202155ZM2.50274 3.64276C2.50274 1.63025 4.14548 0 6.1704 0C8.19533 0 9.83807 1.63025 9.83807 3.64275V9.9929L10.2561 9.57663C11.4787 8.35925 13.4606 8.35925 14.6832 9.57663L15.4412 10.3314C16.1761 11.0632 16.4693 12.0684 16.3209 13.0181C17.2211 12.9299 18.1529 13.2291 18.8428 13.9161L19.6008 14.6709C20.8236 15.8886 20.8236 17.8629 19.6008 19.0805L19.2118 19.4678H22.8064C24.8342 19.4678 26.4822 21.073 26.4822 23.0581C26.4822 25.0433 24.8342 26.6484 22.8064 26.6484H17.6003C17.3153 26.8327 17.0083 26.9893 16.6824 27.1137L11.8801 28.9478C7.18399 30.7412 1.95967 28.1232 0.589166 23.2895L0.215643 21.9721C-0.253432 20.3177 0.0514934 18.54 1.04514 17.1362C1.44655 16.5691 1.9422 16.0885 2.50274 15.7095V3.64276ZM6.1704 1.38271C4.91238 1.38271 3.89376 2.39524 3.89376 3.64276L3.89368 16.039L6.57425 15.0679C6.48933 14.0362 6.84326 12.9751 7.63601 12.1857L8.44705 11.378V3.64275C8.44705 2.39524 7.42843 1.38271 6.1704 1.38271ZM3.6916 3.64276C3.6916 2.28226 4.80207 1.18056 6.1704 1.18056C7.53874 1.18056 8.64921 2.28225 8.64921 3.64275V11.462L7.77865 12.3289C7.01068 13.0936 6.6787 14.1278 6.78267 15.1259L6.79086 15.2045L3.69145 16.3273L3.6916 3.64276ZM13.7001 10.5567C13.0206 9.88008 11.9187 9.88008 11.2392 10.5567L8.61906 13.1658C8.22646 13.5567 8.00738 14.0547 7.96165 14.5653L9.56891 13.9831C10.9695 13.4757 12.4756 13.7731 13.5642 14.6511L14.4582 13.7609C15.1375 13.0845 15.1375 11.988 14.4582 11.3116L13.7001 10.5567ZM11.0965 10.4135C11.8549 9.65829 13.0844 9.65829 13.8428 10.4135L14.6008 11.1683C15.3594 11.9237 15.3594 13.1487 14.6008 13.9042L13.5762 14.9244L13.5054 14.8646C12.4651 13.9862 10.999 13.68 9.63777 14.1731L7.74766 14.8579L7.75112 14.7101C7.76541 14.0979 8.00726 13.4897 8.47642 13.0225L11.0965 10.4135ZM17.8598 14.8962C17.1802 14.2196 16.0783 14.2196 15.3988 14.8962L14.5253 15.766C14.6068 15.9048 14.6809 16.0497 14.7469 16.2005C15.538 18.0058 14.9253 20.051 13.4201 21.1588C14.2639 21.5534 15.3007 21.4034 15.9977 20.7094L18.6178 18.1004C19.2971 17.424 19.2971 16.3275 18.6178 15.651L17.8598 14.8962ZM15.2561 14.753C16.0145 13.9978 17.244 13.9978 18.0024 14.753L18.7604 15.5078C19.5191 16.2632 19.5191 17.4882 18.7604 18.2437L16.1403 20.8527C15.337 21.6526 14.1198 21.7883 13.1759 21.2606L13.0325 21.1804L13.1688 21.0886C14.6954 20.0598 15.3364 18.0493 14.5618 16.2816C14.4885 16.1143 14.4048 15.9546 14.3118 15.803L14.27 15.7349L15.2561 14.753ZM13.7314 17.226C13.2165 15.5444 11.3825 14.6477 9.73893 15.274L3.3782 17.6979L2.01466 18.1919C1.39745 19.2085 1.22701 20.4404 1.55384 21.5931L1.92736 22.9105C3.07512 26.9586 7.45048 29.1513 11.3836 27.6493L16.1859 25.8153C16.5176 25.6886 16.822 25.5156 17.0928 25.3053L17.1202 25.284H17.8499L17.8508 25.2832H22.8064C24.0691 25.2832 25.0885 24.2847 25.0885 23.0581C25.0885 21.8316 24.0691 20.8331 22.8064 20.8331L18.5139 20.833C18.4119 20.833 18.3112 20.8091 18.2202 20.7631L18.0202 20.6621L17.9694 20.7176L17.9645 20.71L16.9807 21.6895C15.6075 23.057 13.4161 23.113 11.9758 21.8575L8.22694 23.1872L7.76294 21.8832L10.9891 20.7388L12.1729 20.3194C13.4378 19.8712 14.1241 18.5089 13.7314 17.226ZM18.0322 20.4416L18.3113 20.5826C18.3741 20.6143 18.4435 20.6309 18.5139 20.6309L22.8064 20.6309C24.1761 20.6309 25.2907 21.7153 25.2907 23.0581C25.2907 24.4009 24.1761 25.4854 22.8064 25.4854H17.9341L17.9332 25.4862H17.1892C16.9098 25.699 16.5974 25.8745 16.2581 26.0041L11.4557 27.8381C7.41182 29.3825 2.91304 27.1281 1.73287 22.9657L1.35935 21.6483C1.01378 20.4295 1.19915 19.1261 1.86099 18.0557L1.87948 18.0258L3.30777 17.5084L3.30934 17.5078L9.66694 15.0851C11.4198 14.4172 13.3755 15.3734 13.9247 17.1668C14.3491 18.5532 13.6073 20.0256 12.2404 20.51L11.0567 20.9294L8.02123 22.0061L8.3497 22.9292L12.0212 21.6269L12.0659 21.6672C13.4258 22.8923 15.5269 22.852 16.8381 21.5463L17.9529 20.4362L17.9746 20.4125L17.9759 20.4132L17.9991 20.3902L18.0322 20.4416Z" fill="white"/>
<path id="Vector 2223 (Stroke)" fill-rule="evenodd" clip-rule="evenodd" d="M13.5607 16.7147C12.9617 15.3477 11.4025 14.68 9.99775 15.1889L1.87148 18.1328L1.46777 17.0219L9.59404 14.078C11.5855 13.3566 13.7959 14.3031 14.6451 16.241C15.5794 18.3733 14.5059 20.8494 12.3093 21.6286L8.27902 23.0582L7.88279 21.9446L11.913 20.515C13.4625 19.9654 14.2198 18.2188 13.5607 16.7147Z" fill="white"/>
<path id="Vector 2223 (Stroke) (Stroke)" fill-rule="evenodd" clip-rule="evenodd" d="M9.55929 13.983C11.6008 13.2435 13.8667 14.2137 14.7373 16.2004C15.6953 18.3867 14.5946 20.9251 12.3427 21.7239L8.21732 23.1872L7.75331 21.8832L11.8789 20.4198C13.3732 19.8897 14.1033 18.2055 13.4678 16.7552C12.8902 15.4372 11.3866 14.7932 10.0318 15.284L1.81064 18.2622L1.33789 16.9613L9.55929 13.983ZM14.5521 16.2816C13.7244 14.3926 11.5697 13.4698 9.62814 14.1731L1.597 17.0825L1.93166 18.0034L9.96299 15.0939C11.4178 14.5669 13.0325 15.2583 13.6529 16.6741C14.3356 18.2321 13.5512 20.0411 11.9465 20.6103L8.01161 22.006L8.34007 22.9292L12.2752 21.5334C14.4166 20.7738 15.4629 18.3601 14.5521 16.2816Z" fill="white"/>
</g>
<g id="Lucy">
<path id="Vector" d="M77.4797 12.2706L70.8086 28.5643H68.9084L71.0916 23.2274L66.624 12.2706H68.6658L72.1428 21.2463L75.5795 12.2706H77.4797Z" fill="white"/>
<path id="Vector_2" d="M54.5674 17.7895C54.5674 16.644 54.7965 15.6467 55.2547 14.7976C55.7129 13.9351 56.3463 13.268 57.155 12.7963C57.9771 12.3246 58.9137 12.0887 59.9649 12.0887C61.3261 12.0887 62.4447 12.4189 63.3207 13.0793C64.2102 13.7397 64.7964 14.6561 65.0794 15.8286H63.0983C62.9096 15.1548 62.539 14.6224 61.9865 14.2316C61.4474 13.8408 60.7735 13.6453 59.9649 13.6453C58.9137 13.6453 58.0647 14.0092 57.4178 14.737C56.7709 15.4512 56.4474 16.4688 56.4474 17.7895C56.4474 19.1237 56.7709 20.1547 57.4178 20.8825C58.0647 21.6102 58.9137 21.9741 59.9649 21.9741C60.7735 21.9741 61.4474 21.7854 61.9865 21.4081C62.5255 21.0307 62.8961 20.4916 63.0983 19.7908H65.0794C64.7829 20.9229 64.1899 21.8326 63.3005 22.5199C62.411 23.1938 61.2991 23.5307 59.9649 23.5307C58.9137 23.5307 57.9771 23.2948 57.155 22.8232C56.3463 22.3515 55.7129 21.6843 55.2547 20.8218C54.7965 19.9593 54.5674 18.9485 54.5674 17.7895Z" fill="white"/>
<path id="Vector_3" d="M51.7441 12.2706V23.3487H49.9045V21.7112C49.5541 22.2773 49.0622 22.722 48.4288 23.0455C47.8089 23.3554 47.1215 23.5104 46.3668 23.5104C45.5043 23.5104 44.7294 23.3352 44.0421 22.9848C43.3547 22.6209 42.8089 22.0819 42.4046 21.3676C42.0138 20.6533 41.8184 19.784 41.8184 18.7598V12.2706H43.6378V18.5172C43.6378 19.6088 43.914 20.4512 44.4666 21.0441C45.0191 21.6236 45.7738 21.9134 46.7307 21.9134C47.7145 21.9134 48.4895 21.6102 49.0555 21.0037C49.6215 20.3972 49.9045 19.5145 49.9045 18.3555V12.2706H51.7441Z" fill="white"/>
<path id="Vector_4" d="M34.6287 21.8529H39.5612V23.3488H32.7891V9.25867H34.6287V21.8529Z" fill="white"/>
</g>
</g>
</svg>
