<svg width="40" height="40" viewBox="0 0 40 40" fill="none" xmlns="http://www.w3.org/2000/svg">
<path fill-rule="evenodd" clip-rule="evenodd" d="M16.5582 15.098V7.94929C16.5582 5.82857 14.8269 4.10938 12.6913 4.10938C10.5556 4.10938 8.82433 5.82857 8.82433 7.9493V21.0907C8.20758 21.4991 7.66281 22.0222 7.22385 22.6423C6.16567 24.1373 5.84095 26.0304 6.34048 27.7922L6.74546 29.2206C8.2138 34.3994 13.8112 37.2044 18.8426 35.2828L24.0494 33.2944C24.4058 33.1583 24.7409 32.986 25.0512 32.7827H30.7282C32.8687 32.7827 34.604 31.0889 34.604 28.9996C34.604 26.9103 32.8687 25.2166 30.7282 25.2166H26.5655L27.1753 24.6094C28.4581 23.3321 28.4581 21.2611 27.1753 19.9838L26.3535 19.1654C25.5927 18.4078 24.5515 18.0996 23.5625 18.2406C23.7725 17.203 23.4734 16.0835 22.6654 15.2789L21.8436 14.4605C20.5608 13.1832 18.4811 13.1832 17.1983 14.4605L16.5582 15.098ZM15.2692 16.3815V7.94929C15.2692 6.53548 14.115 5.38935 12.6913 5.38935C11.2675 5.38935 10.1133 6.53548 10.1133 7.9493V21.1236L10.1132 21.5457L13.2461 20.4108C13.1301 19.2971 13.5006 18.1427 14.3576 17.2892L15.2692 16.3815ZM7.5805 27.4411C7.21426 26.1494 7.41072 24.7681 8.11217 23.6336L9.62659 23.085L16.5213 20.4576C18.3625 19.756 20.4169 20.7605 20.9937 22.6443C21.4367 24.0914 20.6626 25.6281 19.2359 26.1336L17.9524 26.5883L14.5579 27.7924L14.9875 28.9997L19.0098 27.573C20.5273 28.94 22.8715 28.8951 24.3346 27.4381L25.4973 26.2804L25.499 26.2831L25.5142 26.2665L25.8052 26.4135C25.8885 26.4556 25.9807 26.4775 26.0742 26.4775L30.7282 26.4776C32.1552 26.4776 33.312 27.6068 33.312 28.9996C33.312 30.3925 32.1552 31.5217 30.7282 31.5217H25.4004L25.3995 31.5226H24.6006C24.2986 31.7571 23.9592 31.9501 23.5893 32.0913L18.3825 34.0798C14.0582 35.7312 9.24746 33.3204 7.98548 28.8695L7.5805 27.4411ZM21.8896 21.6085C22.7513 23.5749 22.0381 25.8109 20.3402 26.9551C21.322 27.504 22.5881 27.3626 23.4234 26.5308L26.2641 23.7021C27.0437 22.9258 27.0437 21.6673 26.2641 20.8911L25.4423 20.0727C24.6628 19.2965 23.3989 19.2965 22.6194 20.0727L21.6116 21.0763C21.7151 21.2449 21.8081 21.4225 21.8896 21.6085ZM16.4133 19.2634C17.9272 18.7149 19.5579 19.0556 20.7146 20.0324L21.7542 18.9972C22.5338 18.2209 22.5338 16.9624 21.7542 16.1862L20.9324 15.3678C20.1529 14.5916 18.889 14.5916 18.1095 15.3678L15.2688 18.1966C14.7809 18.6824 14.5295 19.3146 14.5146 19.9512L16.4133 19.2634Z" fill="black"/>
<path fill-rule="evenodd" clip-rule="evenodd" d="M12.69 4.21918C10.6142 4.21918 8.93267 5.89003 8.93267 7.94951V21.1498L8.88358 21.1823C8.27798 21.5833 7.74308 22.0969 7.31205 22.7058C6.27302 24.1738 5.95418 26.0326 6.44467 27.7626L6.84964 29.1909C8.30041 34.3077 13.8309 37.0793 18.8023 35.1807L24.009 33.1922C24.358 33.0589 24.6861 32.8903 24.9898 32.6912L25.0172 32.6733H30.7269C32.8095 32.6733 34.4931 31.0261 34.4931 28.9998C34.4931 26.9735 32.8095 25.3264 30.7269 25.3264H26.2989L27.0967 24.532C28.3365 23.2975 28.3365 21.2962 27.0967 20.0617L26.2749 19.2433C25.5396 18.5111 24.5332 18.2129 23.5768 18.3493L23.4231 18.3713L23.4539 18.2191C23.6568 17.2161 23.3677 16.1343 22.5868 15.3568L21.765 14.5384C20.525 13.3036 18.5144 13.3036 17.2744 14.5384L16.4473 15.362V7.94951C16.4473 5.89003 14.7659 4.21918 12.69 4.21918ZM8.71349 7.94951C8.71349 5.76753 10.4946 4 12.69 4C14.8855 4 16.6665 5.76753 16.6665 7.94951V14.8344L17.1198 14.3831C18.4453 13.0632 20.5941 13.0632 21.9196 14.3831L22.7415 15.2015C23.5383 15.9949 23.8561 17.0847 23.6953 18.1144C24.6713 18.0187 25.6815 18.3431 26.4295 19.088L27.2514 19.9064C28.5772 21.2265 28.5772 23.3671 27.2514 24.6873L26.8297 25.1072H30.7269C32.9255 25.1072 34.7123 26.8475 34.7123 28.9998C34.7123 31.1522 32.9255 32.8925 30.7269 32.8925H25.0824C24.7734 33.0923 24.4405 33.262 24.0872 33.397L18.8805 35.3854C13.7889 37.3299 8.12469 34.4914 6.63878 29.2507L6.2338 27.8223C5.72523 26.0286 6.05583 24.1013 7.13315 22.5792C7.56836 21.9643 8.10575 21.4433 8.71349 21.0324V7.94951ZM12.69 5.49915C11.326 5.49915 10.2216 6.59694 10.2216 7.94951L10.2216 21.3896L13.1279 20.3368C13.0358 19.2182 13.4195 18.0677 14.279 17.2118L15.1584 16.3362V7.94951C15.1584 6.59694 14.054 5.49915 12.69 5.49915ZM10.0025 7.94951C10.0025 6.47444 11.2064 5.27997 12.69 5.27997C14.1736 5.27997 15.3775 6.47444 15.3775 7.94951V16.4272L14.4337 17.3671C13.601 18.1962 13.2411 19.3175 13.3538 20.3996L13.3627 20.4848L10.0023 21.7022L10.0025 7.94951ZM20.8538 15.4457C20.1171 14.7121 18.9224 14.7121 18.1856 15.4457L15.3449 18.2744C14.9192 18.6983 14.6817 19.2382 14.6321 19.7919L16.3747 19.1606C17.8932 18.6105 19.5261 18.933 20.7064 19.8848L21.6757 18.9197C22.4122 18.1863 22.4122 16.9975 21.6757 16.2641L20.8538 15.4457ZM18.0309 15.2904C18.8532 14.4716 20.1862 14.4716 21.0085 15.2904L21.8303 16.1088C22.6528 16.9278 22.6528 18.256 21.8303 19.075L20.7194 20.1812L20.6426 20.1164C19.5148 19.1639 17.9252 18.832 16.4494 19.3666L14.4001 20.109L14.4038 19.9489C14.4193 19.285 14.6815 18.6256 15.1902 18.1191L18.0309 15.2904ZM25.3637 20.1506C24.627 19.417 23.4323 19.417 22.6955 20.1506L21.7485 21.0936C21.8368 21.2441 21.9171 21.4013 21.9888 21.5647C22.8464 23.522 22.1821 25.7394 20.5502 26.9405C21.465 27.3684 22.5892 27.2058 23.3448 26.4534L26.1856 23.6246C26.9221 22.8912 26.9221 21.7024 26.1856 20.969L25.3637 20.1506ZM22.5408 19.9953C23.3631 19.1765 24.6961 19.1765 25.5184 19.9953L26.3402 20.8137C27.1628 21.6327 27.1628 22.9609 26.3402 23.7799L23.4995 26.6087C22.6285 27.476 21.3088 27.6231 20.2855 27.051L20.1299 26.964L20.2777 26.8644C21.9328 25.749 22.6278 23.5693 21.788 21.6527C21.7085 21.4713 21.6178 21.2982 21.517 21.1338L21.4717 21.06L22.5408 19.9953ZM20.8877 22.6766C20.3294 20.8534 18.341 19.8812 16.559 20.5603L9.66267 23.1882L8.18431 23.7238C7.51513 24.826 7.33033 26.1617 7.68469 27.4115L8.08966 28.8398C9.33407 33.2288 14.0779 35.6061 18.3422 33.9776L23.549 31.9891C23.9086 31.8518 24.2386 31.6642 24.5322 31.4362L24.5618 31.4132H25.3531L25.354 31.4123H30.7269C32.0959 31.4123 33.2012 30.3297 33.2012 28.9998C33.2012 27.67 32.0959 26.5874 30.7269 26.5874L26.0729 26.5873C25.9623 26.5873 25.8532 26.5614 25.7545 26.5115L25.5376 26.402L25.4825 26.4622L25.4772 26.4539L24.4107 27.516C22.9217 28.9986 20.5459 29.0593 18.9843 27.6981L14.9197 29.1398L14.4166 27.726L17.9145 26.4852L19.198 26.0305C20.5694 25.5446 21.3135 24.0675 20.8877 22.6766ZM25.5507 26.163L25.8533 26.3159C25.9214 26.3502 25.9966 26.3682 26.0729 26.3682L30.7269 26.3682C32.212 26.3682 33.4204 27.544 33.4204 28.9998C33.4204 30.4557 32.212 31.6315 30.7269 31.6315H25.4443L25.4434 31.6324H24.6367C24.3337 31.8631 23.9951 32.0534 23.6271 32.1939L18.4204 34.1824C14.036 35.8568 9.15835 33.4125 7.8788 28.8996L7.47382 27.4713C7.09915 26.1498 7.30013 24.7367 8.01771 23.5762L8.03775 23.5438L9.58632 22.9828L9.58802 22.9821L16.481 20.3554C18.3815 19.6312 20.5019 20.6679 21.0972 22.6124C21.5575 24.1156 20.7532 25.712 19.2712 26.2371L17.9878 26.6918L14.6967 27.8592L15.0528 28.86L19.0335 27.4481L19.0819 27.4918C20.5564 28.82 22.8344 28.7763 24.256 27.3607L25.4647 26.1571L25.4882 26.1315L25.4897 26.1322L25.5148 26.1072L25.5507 26.163Z" fill="black"/>
<path fill-rule="evenodd" clip-rule="evenodd" d="M20.7025 22.1203C20.0531 20.6383 18.3627 19.9144 16.8396 20.4661L8.02901 23.6579L7.59131 22.4534L16.4019 19.2617C18.5611 18.4795 20.9576 19.5057 21.8782 21.6068C22.8913 23.9187 21.7274 26.6033 19.3458 27.4481L14.9761 28.998L14.5465 27.7907L18.9162 26.2407C20.5961 25.6448 21.4171 23.7511 20.7025 22.1203Z" fill="black"/>
<path fill-rule="evenodd" clip-rule="evenodd" d="M16.3644 19.1648C18.5778 18.3629 21.0346 19.4149 21.9784 21.5689C23.0171 23.9392 21.8237 26.6914 19.3822 27.5575L14.9094 29.144L14.4063 27.7301L18.8794 26.1435C20.4995 25.5689 21.291 23.7428 20.602 22.1704C19.9758 20.7413 18.3456 20.0432 16.8767 20.5753L7.96324 23.8043L7.45068 22.3939L16.3644 19.1648ZM21.7777 21.6569C20.8803 19.6088 18.5441 18.6083 16.439 19.3708L7.73162 22.5252L8.09446 23.5237L16.8021 20.3692C18.3794 19.7978 20.1301 20.5474 20.8027 22.0825C21.5429 23.7717 20.6925 25.733 18.9526 26.3501L14.6864 27.8634L15.0425 28.8642L19.309 27.3509C21.6307 26.5273 22.7652 23.9104 21.7777 21.6569Z" fill="black"/>
</svg>
